<svg width="512" height="512" viewBox="0 0 512 512" fill="none" xmlns="http://www.w3.org/2000/svg">
<rect width="512" height="512" fill="#C5CAE9"/>
<path d="M343.5 181H318.5C318.5 146.5 290.5 118.5 256 118.5C221.5 118.5 193.5 146.5 193.5 181H168.5C154.75 181 143.5 192.25 143.5 206V356C143.5 369.75 154.75 381 168.5 381H343.5C357.25 381 368.5 369.75 368.5 356V206C368.5 192.25 357.25 181 343.5 181ZM256 143.5C276.75 143.5 293.5 160.25 293.5 181H218.5C218.5 160.25 235.25 143.5 256 143.5ZM256 268.5C226.875 268.5 202.375 248.625 195.5 221.625C193.375 213.75 199.5 206 207.625 206C213.5 206 218.25 210.25 219.875 216C224.25 231.875 238.75 243.5 256 243.5C273.25 243.5 287.75 231.875 292.125 216C293.75 210.25 298.5 206 304.375 206C312.5 206 318.5 213.75 316.5 221.625C309.625 248.625 285.125 268.5 256 268.5Z" fill="#283593"/>
</svg>
