<svg width="512" height="512" viewBox="0 0 512 512" fill="none" xmlns="http://www.w3.org/2000/svg">
<rect width="512" height="512" fill="#FFCCBC"/>
<path d="M380.997 205.997C380.997 199.122 375.372 193.497 368.497 193.497H280.997C274.122 193.497 268.497 199.122 268.497 205.997C268.497 212.872 274.122 218.497 280.997 218.497H368.497C375.372 218.497 380.997 212.872 380.997 205.997ZM268.497 305.997C268.497 312.872 274.122 318.497 280.997 318.497H368.497C375.372 318.497 380.997 312.872 380.997 305.997C380.997 299.122 375.372 293.497 368.497 293.497H280.997C274.122 293.497 268.497 299.122 268.497 305.997ZM236.872 163.872C241.747 168.747 241.747 176.622 236.872 181.497L183.997 234.622C179.122 239.497 171.247 239.497 166.247 234.622L139.747 207.997C134.872 203.122 134.872 195.247 139.747 190.372C144.622 185.497 152.497 185.497 157.372 190.372L175.122 208.122L219.372 163.872C224.122 159.122 232.122 159.122 236.872 163.872ZM236.997 263.997C241.872 268.872 241.872 276.747 236.997 281.622L184.122 334.747C179.247 339.622 171.372 339.622 166.372 334.747L139.747 307.997C134.872 303.122 134.872 295.247 139.747 290.372C144.622 285.497 152.497 285.497 157.372 290.372L175.122 308.122L219.372 263.872C224.122 259.122 232.122 259.122 236.997 263.997Z" fill="#D84315"/>
</svg>
