<svg width="512" height="512" viewBox="0 0 512 512" fill="none" xmlns="http://www.w3.org/2000/svg">
<rect width="512" height="512" fill="#EDE7F6"/>
<path d="M364.125 326.625L341.75 304.25C337.75 300.25 331 303 331 308.625V318.5H181C174.125 318.5 168.5 324.125 168.5 331C168.5 337.875 174.125 343.5 181 343.5H331V353.375C331 359 337.75 361.75 341.625 357.75L364 335.375C366.5 333 366.5 329 364.125 326.625V326.625ZM224.75 253.5H287.25L295.5 273.5C297.375 278 301.75 281 306.625 281C315.25 281 321 272.125 317.625 264.25L269.125 152.125C266.875 146.875 261.75 143.5 256 143.5C250.25 143.5 245.125 146.875 242.875 152.125L194.375 264.25C191 272.125 196.875 281 205.5 281C210.375 281 214.75 278 216.625 273.5L224.75 253.5ZM256 168.25L279.375 231H232.625L256 168.25Z" fill="#4527A0"/>
</svg>
