<svg width="512" height="512" viewBox="0 0 512 512" fill="none" xmlns="http://www.w3.org/2000/svg">
<rect width="512" height="512" fill="#C8E6C9"/>
<path d="M356 131H156C142.25 131 131 142.25 131 156V350.875C131 362 144.5 367.625 152.375 359.75L181 331H356C369.75 331 381 319.75 381 306V156C381 142.25 369.75 131 356 131ZM275.625 250.625L261.625 281.125C259.375 286 252.5 286 250.25 281.125L236.25 250.625L205.75 236.625C200.875 234.375 200.875 227.5 205.75 225.25L236.25 211.25L250.25 180.75C252.5 175.875 259.375 175.875 261.625 180.75L275.625 211.25L306.125 225.25C311 227.5 311 234.375 306.125 236.625L275.625 250.625Z" fill="#1B5E20"/>
</svg>
