<svg width="512" height="512" viewBox="0 0 512 512" fill="none" xmlns="http://www.w3.org/2000/svg">
<rect width="512" height="512" fill="#B3E5FC"/>
<path d="M356 193.5H293.5V156C293.5 142.25 282.25 131 268.5 131H243.5C229.75 131 218.5 142.25 218.5 156V193.5H156C142.25 193.5 131 204.75 131 218.5V356C131 369.75 142.25 381 156 381H356C369.75 381 381 369.75 381 356V218.5C381 204.75 369.75 193.5 356 193.5ZM218.5 256C228.875 256 237.25 264.375 237.25 274.75C237.25 285.125 228.875 293.5 218.5 293.5C208.125 293.5 199.75 285.125 199.75 274.75C199.75 264.375 208.125 256 218.5 256ZM256 331H181V325.625C181 318.125 185.5 311.25 192.5 308.25C200.5 304.75 209.25 302.875 218.5 302.875C227.75 302.875 236.5 304.75 244.5 308.25C251.375 311.25 256 318 256 325.625V331ZM268.5 218.5H243.5V156H268.5V218.5ZM321.625 312.25H290.375C285.25 312.25 281 308 281 302.875C281 297.75 285.25 293.5 290.375 293.5H321.625C326.75 293.5 331 297.75 331 302.875C331 308 326.75 312.25 321.625 312.25ZM321.625 274.75H290.375C285.25 274.75 281 270.5 281 265.375C281 260.25 285.25 256 290.375 256H321.625C326.75 256 331 260.25 331 265.375C331 270.5 326.75 274.75 321.625 274.75Z" fill="#0277BD"/>
</svg>
