<svg width="512" height="512" viewBox="0 0 512 512" fill="none" xmlns="http://www.w3.org/2000/svg">
<rect width="512" height="512" fill="#EDE7F6"/>
<path d="M372.122 157.497L314.747 214.872L334.622 234.747C342.497 242.622 336.872 256.122 325.747 256.122H268.497C261.622 256.122 255.997 250.497 255.997 243.622V186.122C255.997 174.997 269.497 169.372 277.372 177.247L297.247 197.122L354.622 139.747C359.497 134.872 367.372 134.872 372.247 139.747C376.997 144.747 376.997 152.622 372.122 157.497ZM157.497 372.122L214.872 314.747L234.747 334.622C242.622 342.497 256.122 336.872 256.122 325.747V268.497C256.122 261.622 250.497 255.997 243.622 255.997H186.122C174.997 255.997 169.372 269.497 177.247 277.372L197.122 297.247L139.747 354.622C134.872 359.497 134.872 367.372 139.747 372.247C144.747 376.997 152.622 376.997 157.497 372.122Z" fill="#4527A0"/>
</svg>
