<svg width="512" height="512" viewBox="0 0 512 512" fill="none" xmlns="http://www.w3.org/2000/svg">
<rect width="512" height="512" fill="#F8BBD0"/>
<path d="M356 156H156C142.25 156 131 167.25 131 181V331C131 344.75 142.25 356 156 356H356C369.75 356 381 344.75 381 331V181C381 167.25 369.75 156 356 156ZM168.5 256H193.5C200.375 256 206 261.625 206 268.5C206 275.375 200.375 281 193.5 281H168.5C161.625 281 156 275.375 156 268.5C156 261.625 161.625 256 168.5 256ZM268.5 331H168.5C161.625 331 156 325.375 156 318.5C156 311.625 161.625 306 168.5 306H268.5C275.375 306 281 311.625 281 318.5C281 325.375 275.375 331 268.5 331ZM343.5 331H318.5C311.625 331 306 325.375 306 318.5C306 311.625 311.625 306 318.5 306H343.5C350.375 306 356 311.625 356 318.5C356 325.375 350.375 331 343.5 331ZM343.5 281H243.5C236.625 281 231 275.375 231 268.5C231 261.625 236.625 256 243.5 256H343.5C350.375 256 356 261.625 356 268.5C356 275.375 350.375 281 343.5 281Z" fill="#880E4F"/>
</svg>
