<svg width="512" height="512" viewBox="0 0 512 512" fill="none" xmlns="http://www.w3.org/2000/svg">
<rect width="512" height="512" fill="#D7CCC8"/>
<path d="M349.25 230.997C348.017 232.819 347.286 234.935 347.133 237.129C346.979 239.324 347.408 241.521 348.375 243.497C351.477 250.738 353.661 258.339 354.875 266.122C358.092 286.249 355.083 306.878 346.25 325.247C345.177 327.262 343.573 328.944 341.612 330.112C339.651 331.28 337.407 331.889 335.125 331.872H177C174.704 331.877 172.452 331.249 170.49 330.059C168.527 328.868 166.931 327.16 165.875 325.122C157.873 308.89 154.427 290.791 155.902 272.754C157.378 254.717 163.72 237.419 174.253 222.703C184.787 207.987 199.116 196.406 215.713 189.193C232.311 181.98 250.555 179.407 268.5 181.747C277.58 182.814 286.461 185.171 294.875 188.747C296.851 189.714 299.047 190.143 301.242 189.989C303.437 189.835 305.553 189.105 307.375 187.872C309.273 186.621 310.795 184.876 311.775 182.825C312.756 180.774 313.159 178.495 312.94 176.232C312.721 173.969 311.89 171.808 310.535 169.983C309.18 168.158 307.353 166.736 305.25 165.872C281.102 155.518 254.306 153.036 228.667 158.778C203.029 164.521 179.852 178.196 162.428 197.862C145.004 217.527 134.22 242.183 131.608 268.327C128.995 294.47 134.687 320.773 147.875 343.497C150.056 347.275 153.188 350.417 156.96 352.61C160.732 354.803 165.012 355.971 169.375 355.997H342.5C346.905 356.014 351.237 354.868 355.056 352.673C358.876 350.477 362.047 347.312 364.25 343.497C373.904 326.765 379.55 308.023 380.743 288.742C381.936 269.461 378.643 250.166 371.125 232.372C370.172 230.344 368.693 228.609 366.84 227.349C364.987 226.089 362.83 225.35 360.594 225.21C358.358 225.069 356.125 225.532 354.13 226.55C352.134 227.568 350.448 229.104 349.25 230.997Z" fill="#4E342E"/>
<path d="M238.375 263.371C233.684 268.062 231.049 274.424 231.049 281.059C231.049 284.343 231.696 287.596 232.953 290.631C234.21 293.666 236.052 296.423 238.375 298.746C240.698 301.069 243.455 302.911 246.49 304.168C249.525 305.425 252.778 306.072 256.063 306.072C262.697 306.072 269.059 303.437 273.75 298.746L344.5 192.621L238.375 263.371Z" fill="#4E342E"/>
</svg>
