<svg width="512" height="512" viewBox="0 0 512 512" fill="none" xmlns="http://www.w3.org/2000/svg">
<rect width="512" height="512" fill="#EDE7F6"/>
<path d="M168.5 193.5H343.5C350.375 193.5 356 187.875 356 181C356 174.125 350.375 168.5 343.5 168.5H168.5C161.625 168.5 156 174.125 156 181C156 187.875 161.625 193.5 168.5 193.5ZM316.375 243.5H168.5C161.625 243.5 156 249.125 156 256C156 262.875 161.625 268.5 168.5 268.5H320.125C332.625 268.5 344.25 276.875 346.25 289.25C348.875 304.875 336.75 318.5 321.625 318.5H293.5V308.625C293.5 303 286.75 300.25 282.875 304.25L260.5 326.625C258 329.125 258 333 260.5 335.5L282.875 357.875C286.875 361.875 293.5 359 293.5 353.5V343.5H318.5C347.75 343.5 371.125 318.375 368.25 288.625C365.75 262.625 342.5 243.5 316.375 243.5ZM218.5 318.5H168.5C161.625 318.5 156 324.125 156 331C156 337.875 161.625 343.5 168.5 343.5H218.5C225.375 343.5 231 337.875 231 331C231 324.125 225.375 318.5 218.5 318.5Z" fill="#4527A0"/>
</svg>
