<svg width="512" height="512" viewBox="0 0 512 512" fill="none" xmlns="http://www.w3.org/2000/svg">
<rect width="512" height="512" fill="#EDE7F6"/>
<path d="M249.75 131C191.125 131 143.5 178.625 143.5 237.25C143.5 295.875 191.125 343.5 249.75 343.5H256V381C316.75 351.75 356 293.5 356 237.25C356 178.625 308.375 131 249.75 131ZM262.25 312.25H237.25V287.25H262.25V312.25ZM267.25 252.5C267.125 252.625 267 252.875 266.875 253.125C266.25 254.125 265.625 255.125 265.125 256.125C264.875 256.5 264.75 257 264.625 257.5C264.25 258.375 263.875 259.25 263.625 260.125C262.75 262.75 262.375 265.5 262.375 268.625H237.25C237.25 262.25 238.25 256.875 239.75 252.375C239.75 252.25 239.75 252.125 239.875 252C240 251.5 240.375 251.25 240.5 250.75C241.25 248.75 242.125 247 243.25 245.25C243.625 244.625 244.125 244 244.5 243.375C244.875 242.875 245.125 242.25 245.5 241.875L245.625 242C256.125 228.25 273.25 224 274.625 208.5C275.75 196.25 267 184.375 255 181.875C242 179.125 230.25 186.75 226.25 197.875C224.5 202.375 220.375 206 215.25 206H212.75C205.25 206 199.75 198.625 201.875 191.375C208.75 168.625 231.5 152.75 257.25 156.5C278.375 159.625 295.25 177 298.875 198.125C304.375 228.625 278.5 236 267.25 252.5V252.5Z" fill="#4527A0"/>
</svg>
