<svg width="512" height="512" viewBox="0 0 512 512" fill="none" xmlns="http://www.w3.org/2000/svg">
<rect width="512" height="512" fill="#C5CAE9"/>
<path d="M343.5 181H318.5C318.5 146.5 290.5 118.5 256 118.5C221.5 118.5 193.5 146.5 193.5 181H168.5C154.75 181 143.5 192.25 143.5 206V356C143.5 369.75 154.75 381 168.5 381H343.5C357.25 381 368.5 369.75 368.5 356V206C368.5 192.25 357.25 181 343.5 181ZM256 143.5C276.75 143.5 293.5 160.25 293.5 181H218.5C218.5 160.25 235.25 143.5 256 143.5Z" fill="#283593"/>
<path d="M206 270.625C200.813 270.625 196.625 274.813 196.625 280C196.625 285.187 200.813 289.375 206 289.375C211.188 289.375 215.375 285.187 215.375 280C215.375 274.813 211.188 270.625 206 270.625ZM206 233.125C200.813 233.125 196.625 237.313 196.625 242.5C196.625 247.687 200.813 251.875 206 251.875C211.188 251.875 215.375 247.687 215.375 242.5C215.375 237.313 211.188 233.125 206 233.125ZM206 308.125C200.813 308.125 196.625 312.375 196.625 317.5C196.625 322.625 200.875 326.875 206 326.875C211.125 326.875 215.375 322.625 215.375 317.5C215.375 312.375 211.188 308.125 206 308.125ZM231 323.75H306C309.438 323.75 312.25 320.938 312.25 317.5C312.25 314.062 309.438 311.25 306 311.25H231C227.563 311.25 224.75 314.062 224.75 317.5C224.75 320.938 227.563 323.75 231 323.75ZM231 286.25H306C309.438 286.25 312.25 283.438 312.25 280C312.25 276.562 309.438 273.75 306 273.75H231C227.563 273.75 224.75 276.562 224.75 280C224.75 283.438 227.563 286.25 231 286.25ZM224.75 242.5C224.75 245.938 227.563 248.75 231 248.75H306C309.438 248.75 312.25 245.938 312.25 242.5C312.25 239.062 309.438 236.25 306 236.25H231C227.563 236.25 224.75 239.062 224.75 242.5Z" fill="#C5CAE9"/>
</svg>
