<svg width="512" height="512" viewBox="0 0 512 512" fill="none" xmlns="http://www.w3.org/2000/svg">
<rect width="512" height="512" fill="#EDE7F6"/>
<path d="M218.498 168.5V173.25C208.123 169.125 196.998 167 185.873 167C168.123 167 150.373 172.375 135.248 183.125C128.873 187.625 128.123 196.75 133.623 202.25L165.748 234.375H179.623V248.25C190.373 259 204.373 264.625 218.498 265.25V293.5H193.498C186.623 293.5 180.998 299.125 180.998 306V331C180.998 344.75 192.248 356 205.998 356H330.998C351.748 356 368.498 339.25 368.498 318.5V168.5C368.498 161.625 362.873 156 355.998 156H230.998C224.123 156 218.498 161.625 218.498 168.5ZM204.623 236.125V209.25H176.123L163.123 196.25C170.248 193.5 177.998 192 185.873 192C202.623 192 218.248 198.5 230.123 210.25L247.748 227.875L245.248 230.375C238.873 236.75 230.373 240.375 221.248 240.375C215.373 240.375 209.623 238.875 204.623 236.125ZM343.498 318.5C343.498 325.375 337.873 331 330.998 331C324.123 331 318.498 325.375 318.498 318.5V306C318.498 299.125 312.873 293.5 305.998 293.5H243.498V261.125C250.623 258.25 257.248 254 262.998 248.25L265.498 245.75L300.873 281H318.498V263.375L243.498 188.75V181H343.498V318.5Z" fill="#4527A0"/>
</svg>
