<svg width="512" height="512" viewBox="0 0 512 512" fill="none" xmlns="http://www.w3.org/2000/svg">
<rect width="512" height="512" fill="#F8BBD0"/>
<path d="M281 181H156C149.125 181 143.5 186.625 143.5 193.5C143.5 200.375 149.125 206 156 206H281C287.875 206 293.5 200.375 293.5 193.5C293.5 186.625 287.875 181 281 181ZM281 231H156C149.125 231 143.5 236.625 143.5 243.5C143.5 250.375 149.125 256 156 256H281C287.875 256 293.5 250.375 293.5 243.5C293.5 236.625 287.875 231 281 231ZM156 306H231C237.875 306 243.5 300.375 243.5 293.5C243.5 286.625 237.875 281 231 281H156C149.125 281 143.5 286.625 143.5 293.5C143.5 300.375 149.125 306 156 306ZM343.5 181C329.75 181 318.5 192.25 318.5 206V283.25C314.625 281.875 310.375 281 306 281C283 281 265 301.5 269.125 325.25C271.75 340.375 284.125 352.75 299.25 355.375C323 359.5 343.5 341.5 343.5 318.5V206H368.5C375.375 206 381 200.375 381 193.5C381 186.625 375.375 181 368.5 181H343.5Z" fill="#880E4F"/>
</svg>
