<svg width="512" height="512" viewBox="0 0 512 512" fill="none" xmlns="http://www.w3.org/2000/svg">
<rect width="512" height="512" fill="#B3E5FC"/>
<path d="M361.62 180.995L367.745 167.745L380.995 161.62C385.87 159.37 385.87 152.495 380.995 150.245L367.745 144.12L361.62 130.995C359.37 126.12 352.495 126.12 350.245 130.995L344.12 144.245L330.995 150.37C326.12 152.62 326.12 159.495 330.995 161.745L344.245 167.87L350.37 180.995C352.495 185.87 359.495 185.87 361.62 180.995Z" fill="#0277BD"/>
<path d="M217.87 180.995L223.995 167.745L237.245 161.62C242.12 159.37 242.12 152.495 237.245 150.245L223.995 144.245L217.87 130.995C215.745 126.12 208.745 126.12 206.62 130.995L200.495 144.245L187.245 150.37C182.37 152.62 182.37 159.495 187.245 161.745L200.495 167.87L206.62 180.995C208.745 185.87 215.745 185.87 217.87 180.995Z" fill="#0277BD"/>
<path d="M350.37 274.748L344.245 287.998L330.995 294.123C326.12 296.373 326.12 303.248 330.995 305.498L344.245 311.623L350.37 324.873C352.62 329.748 359.495 329.748 361.745 324.873L367.87 311.623L380.995 305.373C385.87 303.123 385.87 296.248 380.995 293.998L367.745 287.873L361.62 274.623C359.495 269.873 352.495 269.873 350.37 274.748Z" fill="#0277BD"/>
<path d="M327.37 219.995L291.995 184.62C287.12 179.745 279.245 179.745 274.37 184.62L134.62 324.245C129.745 329.12 129.745 336.995 134.62 341.87L169.995 377.245C174.87 382.12 182.745 382.12 187.62 377.245L327.245 237.62C332.245 232.87 332.245 224.87 327.37 219.995ZM283.62 246.12L265.995 228.495L283.245 211.245L300.87 228.87L283.62 246.12Z" fill="#0277BD"/>
</svg>
