<svg width="512" height="512" viewBox="0 0 512 512" fill="none" xmlns="http://www.w3.org/2000/svg">
<rect width="512" height="512" fill="#C8E6C9"/>
<path d="M256.007 372C269.757 372 281.007 360.75 281.007 347H231.007C231.007 360.75 242.132 372 256.007 372ZM331.007 297V234.5C331.007 196.125 310.507 164 274.757 155.5V147C274.757 136.625 266.382 128.25 256.007 128.25C245.632 128.25 237.257 136.625 237.257 147V155.5C201.382 164 181.007 196 181.007 234.5V297L164.882 313.125C157.007 321 162.507 334.5 173.632 334.5H338.257C349.382 334.5 355.007 321 347.132 313.125L331.007 297Z" fill="#1B5E20"/>
</svg>
