<svg width="512" height="512" viewBox="0 0 512 512" fill="none" xmlns="http://www.w3.org/2000/svg">
<rect width="512" height="512" fill="#FFCCBC"/>
<path d="M381 211.5V286.5C381 300.25 369.75 311.5 356 311.5H343.5V286.5H356V211.5H156V286.5H231V311.5H156C142.25 311.5 131 300.25 131 286.5V211.5C131 197.75 142.25 186.5 156 186.5H356C369.75 186.5 381 197.75 381 211.5ZM287.25 336.5L300.875 306.375L331 292.75L300.875 279.125L287.25 249L273.625 279.125L243.5 292.75L273.625 306.375L287.25 336.5ZM318.5 274L326.25 256.75L343.5 249L326.25 241.25L318.5 224L310.75 241.25L293.5 249L310.75 256.75L318.5 274ZM287.25 336.5L300.875 306.375L331 292.75L300.875 279.125L287.25 249L273.625 279.125L243.5 292.75L273.625 306.375L287.25 336.5ZM318.5 274L326.25 256.75L343.5 249L326.25 241.25L318.5 224L310.75 241.25L293.5 249L310.75 256.75L318.5 274Z" fill="#D84315"/>
</svg>
