<svg width="512" height="512" viewBox="0 0 512 512" fill="none" xmlns="http://www.w3.org/2000/svg">
<rect width="512" height="512" fill="#FFECB3"/>
<path d="M256.001 143.5C250.251 143.5 244.376 144 238.501 145.25C204.001 151.875 176.501 179.75 170.001 214.25C164.001 246.875 176.001 276.875 197.751 296.25C203.126 301 206.001 307.625 206.001 314.625V343.5C206.001 357.25 217.251 368.5 231.001 368.5H234.501C238.876 376 246.751 381 256.001 381C265.251 381 273.251 376 277.501 368.5H281.001C294.751 368.5 306.001 357.25 306.001 343.5V314.625C306.001 307.75 308.751 301 314.001 296.375C332.126 280.375 343.501 257 343.501 231C343.501 182.625 304.376 143.5 256.001 143.5ZM262.251 281H249.751V248.625L226.876 225.875L235.751 217L256.001 237.25L276.251 217L285.126 225.875L262.251 248.75V281ZM274.751 343.5C274.626 343.5 274.501 343.375 274.376 343.375V343.5H237.626V343.375C237.501 343.375 237.376 343.5 237.251 343.5C233.751 343.5 231.001 340.75 231.001 337.25C231.001 333.75 233.751 331 237.251 331C237.376 331 237.501 331.125 237.626 331.125V331H274.376V331.125C274.501 331.125 274.626 331 274.751 331C278.251 331 281.001 333.75 281.001 337.25C281.001 340.75 278.251 343.5 274.751 343.5ZM274.751 318.5H237.251C233.751 318.5 231.001 315.75 231.001 312.25C231.001 308.75 233.751 306 237.251 306H274.751C278.251 306 281.001 308.75 281.001 312.25C281.001 315.75 278.251 318.5 274.751 318.5Z" fill="#FF8F00"/>
</svg>
