<svg width="512" height="512" viewBox="0 0 512 512" fill="none" xmlns="http://www.w3.org/2000/svg">
<rect width="512" height="512" fill="#C8E6C9"/>
<path d="M318.5 159.5H293.5V134.5H318.5V159.5ZM343.5 209.5H368.5V184.5H343.5V209.5ZM343.5 259.5H368.5V234.5H343.5V259.5ZM243.5 359.5H268.5V334.5H243.5V359.5ZM193.5 159.5H218.5V134.5H193.5V159.5ZM143.5 309.5H168.5V284.5H143.5V309.5ZM168.5 359.5V334.5H143.5C143.5 348.25 154.75 359.5 168.5 359.5ZM343.5 134.5V159.5H368.5C368.5 145.75 357.25 134.5 343.5 134.5ZM243.5 159.5H268.5V134.5H243.5V159.5ZM143.5 209.5H168.5V184.5H143.5V209.5ZM193.5 359.5H218.5V334.5H193.5V359.5ZM143.5 259.5H168.5V234.5H143.5V259.5ZM143.5 159.5H168.5V134.5C154.75 134.5 143.5 145.75 143.5 159.5ZM339.875 313.125L357.875 295.125C361.875 291.125 359 284.5 353.5 284.5H306C299.125 284.5 293.5 290.125 293.5 297V344.375C293.5 350 300.25 352.75 304.125 348.75L322.125 330.75L347.125 355.75C352 360.625 359.875 360.625 364.75 355.75C369.625 350.875 369.625 343 364.75 338.125L339.875 313.125Z" fill="#1B5E20"/>
</svg>
