<svg width="512" height="512" viewBox="0 0 512 512" fill="none" xmlns="http://www.w3.org/2000/svg">
<rect width="512" height="512" fill="#EDE7F6"/>
<path d="M281 218.5H368.5C375.375 218.5 381 212.875 381 206C381 199.125 375.375 193.5 368.5 193.5H281C274.125 193.5 268.5 199.125 268.5 206C268.5 212.875 274.125 218.5 281 218.5Z" fill="#4527A0"/>
<path d="M368.5 293.5H281C274.125 293.5 268.5 299.125 268.5 306C268.5 312.875 274.125 318.5 281 318.5H368.5C375.375 318.5 381 312.875 381 306C381 299.125 375.375 293.5 368.5 293.5Z" fill="#4527A0"/>
<path d="M368.5 243.5H318.5C311.625 243.5 306 249.125 306 256C306 262.875 311.625 268.5 318.5 268.5H368.5C375.375 268.5 381 262.875 381 256C381 249.125 375.375 243.5 368.5 243.5Z" fill="#4527A0"/>
<path d="M216.625 204.125C212.75 200.25 206 203 206 208.625V243.5H143.5C136.625 243.5 131 249.125 131 256C131 262.875 136.625 268.5 143.5 268.5H206V303.375C206 309 212.75 311.75 216.625 307.75L264 260.375C266.5 257.875 266.5 254 264 251.5L216.625 204.125Z" fill="#4527A0"/>
</svg>
