<svg width="512" height="512" viewBox="0 0 512 512" fill="none" xmlns="http://www.w3.org/2000/svg">
<rect width="512" height="512" fill="#B3E5FC"/>
<path d="M356 350.875V206L281 131H181C167.25 131 156.125 142.25 156.125 156L156 356C156 369.75 167.125 381 180.875 381H331C336.625 381 341.625 379.125 345.875 376L290.5 320.625C280.5 327.125 268.75 331 256 331C221.5 331 193.5 303 193.5 268.5C193.5 234 221.5 206 256 206C290.5 206 318.5 234 318.5 268.5C318.5 281.25 314.625 293 308.125 302.875L356 350.875ZM218.5 268.5C218.5 289.25 235.25 306 256 306C276.75 306 293.5 289.25 293.5 268.5C293.5 247.75 276.75 231 256 231C235.25 231 218.5 247.75 218.5 268.5Z" fill="#0277BD"/>
</svg>
