<svg width="512" height="512" viewBox="0 0 512 512" fill="none" xmlns="http://www.w3.org/2000/svg">
<rect width="512" height="512" fill="#B3E5FC"/>
<path d="M299.75 281H289.875L286.375 277.625C298.625 263.375 306 244.875 306 224.75C306 179.875 269.625 143.5 224.75 143.5C179.875 143.5 143.5 179.875 143.5 224.75C143.5 269.625 179.875 306 224.75 306C244.875 306 263.375 298.625 277.625 286.375L281 289.875V299.75L343.5 362.125L362.125 343.5L299.75 281V281ZM224.75 281C193.625 281 168.5 255.875 168.5 224.75C168.5 193.625 193.625 168.5 224.75 168.5C255.875 168.5 281 193.625 281 224.75C281 255.875 255.875 281 224.75 281ZM197.625 262.25L224.375 243.125L251.125 262.25L240.75 231.5L267.625 212.75H234.875L224.375 181L213.875 212.75H181L207.75 231.375L197.625 262.25Z" fill="#0277BD"/>
</svg>
