<svg width="512" height="512" viewBox="0 0 512 512" fill="none" xmlns="http://www.w3.org/2000/svg">
<rect width="512" height="512" fill="#F8BBD0"/>
<g clip-path="url(#clip0_331_24)">
<path d="M308.875 193.5H341.375C340.625 187.625 336.875 181.75 331.5 178.875L248.5 136.625C241.5 133 233.125 133 226 136.5L141 178.875C135 182.125 131 189 131 195.625V293.5C131 307.25 142.25 318.5 156 318.5V198.5L237.25 156L308.875 193.5Z" fill="#880E4F"/>
<path d="M356 206H193.5C179.75 206 168.5 217.25 168.5 231V343.5C168.5 357.25 179.75 368.5 193.5 368.5H356C369.75 368.5 381 357.25 381 343.5V231C381 217.25 369.75 206 356 206ZM356 249.25C356 253.375 353.625 257.25 350 259.125L279.875 295.125C276.75 296.75 272.875 296.75 269.75 295.125L199.625 259.125C195.875 257.25 193.5 253.375 193.5 249.25C193.5 240.875 202.25 235.5 209.75 239.375L274.75 272.75L339.75 239.375C347.25 235.5 356 240.875 356 249.25Z" fill="#880E4F"/>
</g>
<defs>
<clipPath id="clip0_331_24">
<rect width="300" height="300" fill="white" transform="translate(106 106)"/>
</clipPath>
</defs>
</svg>
